<?xml version="1.0" encoding="utf-8"?>
<!-- Generator: Adobe Illustrator 22.0.1, SVG Export Plug-In . SVG Version: 6.00 Build 0)  -->
<svg version="1.1" id="Capa_1" xmlns="http://www.w3.org/2000/svg" xmlns:xlink="http://www.w3.org/1999/xlink" x="0px" y="0px"
	 viewBox="0 0 250 60" style="enable-background:new 0 0 250 60;" xml:space="preserve">
<style type="text/css">
	.st0{fill:#FFFFFF;}
	.st1{fill:#4C53C8;}
	.st2{fill:#000333;}
</style>
<g>
	<path class="st0" d="M85.9,0.3C77.1,0.3,70,7.4,70,16.2s7.1,15.9,15.9,15.9s15.9-7.1,15.9-15.9S94.6,0.3,85.9,0.3L85.9,0.3z"/>
	<path class="st1" d="M85.9,2.7c7.4,0,13.5,6.1,13.5,13.5s-6.1,13.5-13.5,13.5c-7.4,0-13.5-6.1-13.5-13.5S78.4,2.7,85.9,2.7"/>
	<g>
		<path class="st2" d="M0,32.7c0-6.6,5.3-11.8,11.8-11.8h54c2.3,0,4.3,2,4.3,4.3s-2,4.3-4.3,4.3H11.7c-1.8,0-3.4,1.4-3.4,3.3
			c0,1.8,1.6,3.3,3.4,3.3h49.2c6.6,0,11.9,5.3,11.9,11.9s-5.3,11.8-11.9,11.8H6.9c-2.3,0-4.3-2-4.3-4.3s2-4.3,4.3-4.3h54.3
			c1.8,0,3.3-1.4,3.3-3.2c0-1.9-1.5-3.4-3.3-3.4H11.8C5.3,44.6,0,39.3,0,32.7z"/>
		<path class="st2" d="M86,59.7c-2.3,0-4.3-2-4.3-4.3V25.1c0-2.3,2-4.3,4.3-4.3s4.3,2,4.3,4.3v30.3C90.3,57.7,88.3,59.7,86,59.7z"/>
		<path class="st2" d="M166.6,20.9c2.3,0,4.3,2,4.3,4.3c0,2.2-1.8,4.1-3.9,4.3H149c-7.2,0.4-8.8,6.8-8.8,10.9v15.1
			c0,2.3-2,4.3-4.3,4.3c-2.3,0-4.3-2-4.3-4.3V40.3c0-3.7,1-7.6,2.8-10.9h-29.2c-2.3,0-4.3-2-4.3-4.3c0-2.3,2-4.3,4.3-4.3L166.6,20.9
			L166.6,20.9z"/>
		<path class="st2" d="M233.6,59.7H193c-9.7-0.5-15.5-10.6-15.5-19.4c0-9,6.1-19.4,16.4-19.4h40.6c9.7,0.5,15.5,10.6,15.5,19.4
			C250,49.3,243.9,59.7,233.6,59.7z M241.7,40.3c0-4.3-1.8-10.9-10-10.9h-36c-8.2,0-10,6.6-10,10.9s1.8,10.9,10,10.9h36
			C239.9,51.1,241.7,44.6,241.7,40.3z"/>
	</g>
</g>
</svg>
