<?xml version="1.0" encoding="utf-8"?>
<!-- Generator: Adobe Illustrator 17.0.0, SVG Export Plug-In . SVG Version: 6.00 Build 0)  -->
<!DOCTYPE svg PUBLIC "-//W3C//DTD SVG 1.1//EN" "http://www.w3.org/Graphics/SVG/1.1/DTD/svg11.dtd">
<svg version="1.1" id="Capa_1" xmlns="http://www.w3.org/2000/svg" xmlns:xlink="http://www.w3.org/1999/xlink" x="0px" y="0px"
	 width="250px" height="60px" viewBox="0 0 250 60" enable-background="new 0 0 250 60" xml:space="preserve">
<g>
	<path fill="#FFFFFF" d="M85.854,0.315c-8.77,0-15.88,7.11-15.88,15.88s7.11,15.88,15.88,15.88s15.88-7.11,15.88-15.88
		S94.624,0.315,85.854,0.315L85.854,0.315z"/>
	<path fill="#4C53C8" d="M85.854,2.686c7.45,0,13.51,6.061,13.51,13.51s-6.061,13.51-13.51,13.51c-7.45,0-13.51-6.061-13.51-13.51
		S78.404,2.686,85.854,2.686"/>
	<g>
		<path fill="#FFFFFF" d="M0,32.711c0-6.587,5.252-11.839,11.84-11.839h54.035c2.314,0,4.273,1.958,4.273,4.273
			c0,2.315-1.959,4.273-4.273,4.273H11.661c-1.78,0-3.383,1.424-3.383,3.294c0,1.78,1.602,3.294,3.383,3.294H60.89
			c6.588,0,11.929,5.341,11.929,11.929S67.477,59.685,60.89,59.685H6.943c-2.314,0-4.273-1.958-4.273-4.273
			c0-2.315,1.958-4.273,4.273-4.273h54.302c1.78,0,3.294-1.424,3.294-3.205c0-1.869-1.513-3.383-3.294-3.383H11.84
			C5.252,44.551,0,39.299,0,32.711z"/>
		<path fill="#FFFFFF" d="M85.996,59.685c-2.315,0-4.273-1.958-4.273-4.273V25.145c0-2.314,1.958-4.273,4.273-4.273
			s4.273,1.958,4.273,4.273v30.267C90.269,57.726,88.311,59.685,85.996,59.685z"/>
		<path fill="#FFFFFF" d="M166.586,20.872c2.315,0,4.273,1.958,4.273,4.273c0,2.226-1.78,4.095-3.917,4.273h-17.893
			c-7.211,0.356-8.813,6.766-8.813,10.861v15.133c0,2.315-1.958,4.273-4.273,4.273c-2.314,0-4.273-1.958-4.273-4.273V40.278
			c0-3.65,0.979-7.567,2.848-10.861H105.34c-2.315,0-4.273-1.958-4.273-4.273c0-2.314,1.958-4.273,4.273-4.273H166.586z"/>
		<path fill="#FFFFFF" d="M233.62,59.685h-40.593c-9.703-0.534-15.49-10.593-15.49-19.406c0-8.991,6.142-19.407,16.379-19.407
			h40.593C244.213,21.406,250,31.465,250,40.278C250,49.269,243.857,59.685,233.62,59.685z M241.721,40.278
			c0-4.273-1.78-10.861-9.97-10.861h-35.964c-8.19,0-9.971,6.588-9.971,10.861c0,4.273,1.78,10.86,9.971,10.86h35.964
			C239.941,51.139,241.721,44.551,241.721,40.278z"/>
	</g>
</g>
</svg>
