<?xml version="1.0" encoding="utf-8"?>
<!-- Generator: Adobe Illustrator 17.0.0, SVG Export Plug-In . SVG Version: 6.00 Build 0)  -->
<!DOCTYPE svg PUBLIC "-//W3C//DTD SVG 1.1//EN" "http://www.w3.org/Graphics/SVG/1.1/DTD/svg11.dtd">
<svg version="1.1" id="Capa_1" xmlns="http://www.w3.org/2000/svg" xmlns:xlink="http://www.w3.org/1999/xlink" x="0px" y="0px"
	 width="100px" height="100px" viewBox="0 0 100 100" enable-background="new 0 0 100 100" xml:space="preserve">
<g>
	<rect fill="#FFFFFF" width="100" height="100"/>
	<path d="M82,32.392c-2.207,0.979-4.58,1.641-7.069,1.938c2.54-1.523,4.492-3.936,5.411-6.811c-2.379,1.411-5.012,2.436-7.817,2.987
		c-2.244-2.392-5.443-3.887-8.983-3.887c-6.799,0-12.311,5.512-12.311,12.31c0,0.964,0.109,1.904,0.319,2.805
		c-10.23-0.513-19.302-5.414-25.373-12.861c-1.059,1.817-1.665,3.932-1.665,6.188c0,4.271,2.172,8.038,5.475,10.246
		c-2.018-0.064-3.916-0.618-5.575-1.541c-0.001,0.053-0.001,0.104-0.001,0.155c0,5.964,4.243,10.939,9.874,12.07
		c-1.032,0.281-2.12,0.432-3.243,0.432c-0.793,0-1.564-0.076-2.315-0.221c1.565,4.891,6.112,8.449,11.499,8.549
		c-4.213,3.302-9.521,5.27-15.288,5.27c-0.994,0-1.974-0.059-2.937-0.172c5.447,3.492,11.918,5.531,18.87,5.531
		c22.642,0,35.022-18.758,35.022-35.025c0-0.533-0.012-1.064-0.034-1.592C78.263,37.028,80.35,34.86,82,32.392z"/>
</g>
</svg>
