<?xml version="1.0" encoding="utf-8"?>
<!-- Generator: Adobe Illustrator 17.0.0, SVG Export Plug-In . SVG Version: 6.00 Build 0)  -->
<!DOCTYPE svg PUBLIC "-//W3C//DTD SVG 1.1//EN" "http://www.w3.org/Graphics/SVG/1.1/DTD/svg11.dtd">
<svg version="1.1" id="Capa_1" xmlns="http://www.w3.org/2000/svg" xmlns:xlink="http://www.w3.org/1999/xlink" x="0px" y="0px"
	 width="100px" height="100px" viewBox="0 0 100 100" enable-background="new 0 0 100 100" xml:space="preserve">
<rect fill="#FFFFFF" width="100" height="100"/>
<g>
	<path d="M64.636,85H35.364C24.164,85,15,76.081,15,65.179V34.821C15,23.919,24.164,15,35.364,15h29.272
		C75.836,15,85,23.919,85,34.821v30.358C85,76.081,75.836,85,64.636,85z M64.636,79.763c3.98,0,7.736-1.523,10.577-4.288
		c2.841-2.765,4.406-6.422,4.406-10.295V34.821c0-3.873-1.565-7.53-4.406-10.295s-6.598-4.288-10.577-4.288H35.364
		c-3.98,0-7.736,1.523-10.577,4.288s-4.406,6.422-4.406,10.295v30.358c0,3.873,1.565,7.53,4.406,10.295s6.597,4.288,10.577,4.288
		L64.636,79.763L64.636,79.763z"/>
	<path d="M68.873,49.73c0,10.365-8.403,18.768-18.768,18.768S31.337,60.095,31.337,49.73s8.403-18.768,18.768-18.768
		S68.873,39.364,68.873,49.73z M50.015,37.455c-6.787,0-12.289,5.502-12.289,12.289s5.502,12.289,12.289,12.289
		s12.289-5.502,12.289-12.289S56.802,37.455,50.015,37.455z"/>
	<circle cx="69.174" cy="30.67" r="4.444"/>
</g>
</svg>
